<svg viewBox="90.27604804270463 0 471.2211298932384 426.53764" xmlns:xlink="http://www.w3.org/1999/xlink" xmlns="http://www.w3.org/2000/svg" style="max-height: 500px" width="471.2211298932384" height="426.53764">
  <defs>
    <clipPath id="clip-path">
      <rect fill="#ffdd9a" height="495.974" width="557.529" data-name="Rectangle 228" id="Rectangle_228"/>
    </clipPath>
  </defs>
  <g clip-path="url(#clip-path)" data-name="Group 18" id="Group_18">
    <path fill="#ffdd9a" transform="translate(-0.001 36.282)" d="M.281,248.486C-.136,144.7,78.748,54.064,181.7,39.589c39.38-5.537,77.179.322,113.23,16.762,7.087,3.232,12.092,3.353,16.792-3.049a43.139,43.139,0,0,1,4.568-4.635c23.4-23.384,38.957-23.7,62.723-.661,5.083,4.927,8.326,5.907,14.252.745,14.693-12.8,29.219-13.159,45.465-1.812,5.685,3.97,10.6,5.344,16.81,1.328,6.73-4.351,13.467-3.9,17.735,3.488,4.333,7.5.265,13.087-5.787,17.562-10.694,7.908-26.152,8.334-37.857,1.058-2.756-1.715-5.224-4.036-8.165-5.283-5.283-2.243-9.949-.648-13.563,3.744-4.144,5.033.18,7.9,3.088,10.9,7.854,8.106,15.427,16.092,16.442,28.4,1.25,15.18-6.5,25.733-17.179,34.4-9.612,7.8-10.384,14.786-5.45,26.637,53.4,128.329-32.4,272.218-170.558,289.08C123.525,471.764,13.7,388.859.385,270.181c-.8-7.145-.1-14.46-.1-21.695M209.963,434.922C300.809,437.05,397.8,360.738,396.8,247.143c-.971-109.34-92.052-184.436-185.519-185.03-94.2-.6-187.479,76.042-187.429,186.462C23.9,362.72,121.317,436.8,209.963,434.922m193.47-323.757c-.572-4.633-3.684-7.7-6.743-10.766q-17.2-17.247-34.445-34.449c-13.506-13.5-17.04-13.213-30.262,1.05-4.151,4.479-4.648,7.335.674,11.112a211.845,211.845,0,0,1,48.819,48.725c1.4,1.925,2.443,4.616,5.789,3.868,3.564-.8,16.2-15.977,16.169-19.539" data-name="Path 101" id="Path_101"/>
    <path fill="#ffdd9a" transform="translate(235.852 0)" d="M225.759,32.291c0,6.485.456,13.009-.122,19.441-.641,7.158-4.2,12.4-12.324,12.268s-11.679-5.524-11.933-12.665c-.456-12.952-.474-25.946.026-38.9C201.689,5.146,206.055-.117,213.715,0c7.678.12,11.492,5.592,12.007,12.841.461,6.452.1,12.963.1,19.448h-.061" data-name="Path 102" id="Path_102"/>
    <path fill="#ffdd9a" transform="translate(266.501 51.548)" d="M258.791,68.457c-6.511,0-13.05.361-19.528-.1-6.915-.491-11.735-4.305-12.085-11.553-.359-7.43,4.574-11.879,11.24-12.25,13.7-.765,27.478-.806,41.182-.2,6.717.3,11.494,4.694,11.429,12.118-.072,8.123-5.446,11.477-12.7,11.944-6.485.419-13.02.089-19.533.089v-.052" data-name="Path 103" id="Path_103"/>
    <path fill="#ffdd9a" transform="translate(260.452 14.458)" d="M222.013,48.047c-.072-3.905,1.839-6.9,4.453-9.529,7.124-7.167,14.178-14.408,21.441-21.432,5.716-5.529,12.259-6.839,18.122-.724,5.429,5.661,4.144,12.074-.937,17.407q-11.207,11.748-23.034,22.9c-3.981,3.764-8.932,4.692-14.019,2.038-4.229-2.208-6.2-5.876-6.026-10.657" data-name="Path 104" id="Path_104"/>
    <path fill="#ffdd9a" transform="translate(107.243 183.839)" d="M112.473,264.894c-1.443,0-2.9-.109-4.329.017-8.484.75-16.092-1.2-16.7-10.91s6.559-12.2,15.184-12.735c53.048-3.29,93.291-27.5,119.673-74,4.24-7.471,9.386-13.982,18.824-8.567,8.632,4.953,6.826,12.772,2.806,19.889-29.81,52.782-75.281,81.053-135.461,86.306" data-name="Path 105" id="Path_105"/>
    <path fill="#ffdd9a" transform="translate(189.324 159.361)" d="M173.009,158.931c-7.319-.341-11.594-4.562-11.633-11.572-.039-7.1,4.514-11.546,11.724-11.522s11.74,4.564,11.742,11.583-4.331,11.222-11.833,11.511" data-name="Path 106" id="Path_106"/>
  </g>
</svg>