<svg xmlns="http://www.w3.org/2000/svg" xmlns:xlink="http://www.w3.org/1999/xlink" width="283" height="186" viewBox="0 0 283 186">
  <defs>
    <filter id="Rectangle_263" x="0" y="0" width="283" height="186" filterUnits="userSpaceOnUse">
      <feOffset dy="3" input="SourceAlpha"/>
      <feGaussianBlur stdDeviation="16.5" result="blur"/>
      <feFlood flood-opacity="0.161"/>
      <feComposite operator="in" in2="blur"/>
      <feComposite in="SourceGraphic"/>
    </filter>
  </defs>
  <g transform="matrix(1, 0, 0, 1, 0, 0)" filter="url(#Rectangle_263)">
    <rect id="Rectangle_263-2" data-name="Rectangle 263" width="184" height="87" rx="6" transform="translate(49.5 46.5)" fill="#fff"/>
  </g>
  <path id="Icon_material-mail-outline" data-name="Icon material-mail-outline" d="M49.125,6h-41a5.118,5.118,0,0,0-5.1,5.125L3,41.875A5.14,5.14,0,0,0,8.125,47h41a5.14,5.14,0,0,0,5.125-5.125V11.125A5.14,5.14,0,0,0,49.125,6Zm0,35.875h-41V16.25l20.5,12.813,20.5-12.812Zm-20.5-17.937L8.125,11.125h41Z" transform="translate(112.875 63.5)" fill="#ffdd9a"/>
</svg>
