<svg xmlns="http://www.w3.org/2000/svg" xmlns:xlink="http://www.w3.org/1999/xlink" width="283" height="186" viewBox="0 0 283 186">
  <defs>
    <filter id="Rectangle_253" x="0" y="0" width="283" height="186" filterUnits="userSpaceOnUse">
      <feOffset dy="3" input="SourceAlpha"/>
      <feGaussianBlur stdDeviation="16.5" result="blur"/>
      <feFlood flood-opacity="0.161"/>
      <feComposite operator="in" in2="blur"/>
      <feComposite in="SourceGraphic"/>
    </filter>
  </defs>
  <g transform="matrix(1, 0, 0, 1, 0, 0)" filter="url(#Rectangle_253)">
    <rect id="Rectangle_253-2" data-name="Rectangle 253" width="184" height="87" rx="6" transform="translate(49.5 46.5)" fill="#ccc5b9"/>
  </g>
  <path id="Icon_awesome-running" data-name="Icon awesome-running" d="M25.235,8.907a4.453,4.453,0,1,0-4.453-4.453A4.453,4.453,0,0,0,25.235,8.907ZM10.548,29.454l-1.373,3.2H2.969a2.969,2.969,0,0,0,0,5.938h7.186a4.444,4.444,0,0,0,4.092-2.7l.816-1.9-.99-.584a8.835,8.835,0,0,1-3.525-3.953Zm25.078-8.673H31.541l-2.418-4.94a8.9,8.9,0,0,0-5.732-4.726L16.8,9.153a8.869,8.869,0,0,0-7.5,1.59l-3.68,2.821a2.968,2.968,0,0,0,3.613,4.711l3.682-2.821a2.889,2.889,0,0,1,2.344-.57l1.364.405L13.145,23.4a5.953,5.953,0,0,0,2.44,7.451L23.469,35.5,20.92,43.643a2.969,2.969,0,1,0,5.666,1.774l2.935-9.376a4.472,4.472,0,0,0-2.008-5.046l-5.682-3.353,2.9-7.263,1.881,3.844a4.481,4.481,0,0,0,4,2.495h5.009a2.968,2.968,0,1,0,0-5.937Z" transform="translate(120.794 67.333)" fill="#fff"/>
</svg>
