<svg xmlns="http://www.w3.org/2000/svg" width="149.888" height="104.335" viewBox="0 0 149.888 104.335">
  <path id="Icon_metro-paint" data-name="Icon metro-paint" d="M152.459,59.5V17.767h-28.1V10.812c0-3.826-4.216-6.956-9.368-6.956H11.939c-5.152,0-9.368,3.13-9.368,6.956V31.679c0,3.826,4.216,6.956,9.368,6.956H114.987c5.152,0,9.368-3.13,9.368-6.956V24.723h18.736V52.546H58.779V66.457H54.095c-2.587,0-4.684,1.557-4.684,3.478v34.778c0,1.921,2.1,3.478,4.684,3.478H72.831c2.587,0,4.684-1.557,4.684-3.478V69.935c0-1.921-2.1-3.478-4.684-3.478H68.147V59.5ZM114.987,17.767H11.939V10.812H114.987Z" transform="translate(-2.571 -3.856)" fill="#ccc5b9"/>
</svg>
