<svg xmlns="http://www.w3.org/2000/svg" xmlns:xlink="http://www.w3.org/1999/xlink" width="165" height="165" viewBox="0 0 165 165">
  <defs>
    <filter id="Ellipse_6" x="0" y="0" width="165" height="165" filterUnits="userSpaceOnUse">
      <feOffset dy="3" input="SourceAlpha"/>
      <feGaussianBlur stdDeviation="12" result="blur"/>
      <feFlood flood-opacity="0.188"/>
      <feComposite operator="in" in2="blur"/>
      <feComposite in="SourceGraphic"/>
    </filter>
  </defs>
  <g id="Group_24" data-name="Group 24" transform="translate(-409 -2716)">
    <g transform="matrix(1, 0, 0, 1, 409, 2716)" filter="url(#Ellipse_6)">
      <circle id="Ellipse_6-2" data-name="Ellipse 6" cx="46.5" cy="46.5" r="46.5" transform="translate(36 33)" fill="#333"/>
    </g>
  </g>
  <path id="Icon_awesome-arrow-down" data-name="Icon awesome-arrow-down" d="M41.828,21.62l2.257,2.257a2.43,2.43,0,0,1,0,3.447L24.328,47.092a2.43,2.43,0,0,1-3.447,0L1.114,27.325a2.43,2.43,0,0,1,0-3.447L3.371,21.62a2.443,2.443,0,0,1,3.488.041L18.532,33.914V4.69a2.435,2.435,0,0,1,2.44-2.44h3.254a2.435,2.435,0,0,1,2.44,2.44V33.914L38.34,21.661A2.426,2.426,0,0,1,41.828,21.62Z" transform="translate(107.529 56.9) rotate(90)" fill="#ff6000"/>
</svg>
