    <svg xmlns="http://www.w3.org/2000/svg" width="123.173" height="123.173" viewBox="0 0 123.173 123.173">         <path id="Path_110" data-name="Path 110"             d="M16.845,4.5h86.412A12.345,12.345,0,0,1,115.6,16.845v86.412A12.345,12.345,0,0,1,103.257,115.6H16.845A12.345,12.345,0,0,1,4.5,103.257V16.845A12.345,12.345,0,0,1,16.845,4.5Z"             transform="translate(0.5 0.5)" fill="none" stroke="#ccc5b9" stroke-linecap="round" stroke-linejoin="round"             stroke-width="10" />         <path id="Path_111" data-name="Path 111"             d="M29.017,19.758A9.258,9.258,0,1,1,19.758,10.5,9.258,9.258,0,0,1,29.017,19.758Z"             transform="translate(19.189 19.189)" fill="none" stroke="#ccc5b9" stroke-linecap="round"             stroke-linejoin="round" stroke-width="10" />         <path id="Path_112" data-name="Path 112" d="M106.257,45.862,75.4,15,7.5,82.9"             transform="translate(9.845 33.206)" fill="none" stroke="#ccc5b9" stroke-linecap="round"             stroke-linejoin="round" stroke-width="10" />     </svg>