<svg xmlns="http://www.w3.org/2000/svg" width="95.624" height="102" viewBox="0 0 95.624 102">
  <path id="Icon_awesome-star-of-life" data-name="Icon awesome-star-of-life" d="M94.029,66.625,66.949,51l27.08-15.625A3.187,3.187,0,0,0,95.2,31.02L88.817,19.978A3.191,3.191,0,0,0,84.46,18.81L57.381,34.435V3.188A3.188,3.188,0,0,0,54.191,0H41.433a3.188,3.188,0,0,0-3.189,3.188V34.437L11.164,18.812A3.191,3.191,0,0,0,6.807,19.98L.428,31.02A3.187,3.187,0,0,0,1.6,35.375L28.675,51,1.6,66.625A3.187,3.187,0,0,0,.428,70.98L6.807,82.022a3.193,3.193,0,0,0,4.357,1.167l27.08-15.625V98.813A3.188,3.188,0,0,0,41.433,102H54.191a3.188,3.188,0,0,0,3.189-3.187V67.563L84.46,83.188a3.189,3.189,0,0,0,4.357-1.167L95.2,70.978A3.185,3.185,0,0,0,94.029,66.625Z" transform="translate(0)" fill="#ff6000"/>
</svg>
