<?xml version="1.0" standalone="no"?>
<!DOCTYPE svg PUBLIC "-//W3C//DTD SVG 20010904//EN"
 "http://www.w3.org/TR/2001/REC-SVG-20010904/DTD/svg10.dtd">
<svg version="1.0" xmlns="http://www.w3.org/2000/svg"
 width="499.000000pt" height="499.000000pt" viewBox="0 0 499.000000 499.000000"
 preserveAspectRatio="xMidYMid meet">
<metadata>
Created by potrace 1.14, written by Peter Selinger 2001-2017
</metadata>
<g transform="translate(0.000000,499.000000) scale(0.100000,-0.100000)"
fill="#000000" stroke="none">
<path d="M170 4977 c-48 -15 -133 -102 -148 -152 -9 -31 -11 -559 -9 -2345 2
-2223 3 -2306 21 -2342 23 -47 68 -91 115 -115 34 -17 145 -18 2327 -21 2583
-2 2348 -10 2427 78 24 26 48 65 55 86 9 30 11 577 9 2349 -2 2206 -3 2311
-20 2342 -26 46 -99 107 -144 121 -53 16 -4581 15 -4633 -1z"/>
</g>
</svg>
